<svg width="800" height="480" viewBox="0 0 800 480" fill="none" xmlns="http://www.w3.org/2000/svg">
  <rect width="800" height="480" rx="24" fill="#F8FAFC"/>
  <rect x="56" y="52" width="688" height="376" rx="18" fill="#E2E8F0"/>
  <rect x="86" y="86" width="220" height="308" rx="16" fill="#FFFFFF"/>
  <circle cx="196" cy="175" r="62" fill="#C7D2FE"/>
  <circle cx="176" cy="165" r="8" fill="#0F172A"/>
  <circle cx="216" cy="165" r="8" fill="#0F172A"/>
  <rect x="165" y="205" width="62" height="10" rx="5" fill="#0F172A"/>
  <rect x="124" y="255" width="144" height="96" rx="48" fill="#93C5FD"/>
  <rect x="336" y="86" width="378" height="64" rx="12" fill="#FFFFFF"/>
  <rect x="360" y="108" width="200" height="20" rx="8" fill="#38BDF8"/>
  <rect x="336" y="170" width="378" height="224" rx="12" fill="#FFFFFF"/>
  <rect x="360" y="204" width="148" height="16" rx="8" fill="#CBD5E1"/>
  <rect x="360" y="234" width="198" height="16" rx="8" fill="#CBD5E1"/>
  <rect x="360" y="264" width="172" height="16" rx="8" fill="#CBD5E1"/>
  <rect x="360" y="330" width="120" height="34" rx="17" fill="#0EA5E9"/>
  <rect x="494" y="330" width="120" height="34" rx="17" fill="#E2E8F0"/>
</svg>