<svg width="800" height="480" viewBox="0 0 800 480" fill="none" xmlns="http://www.w3.org/2000/svg">
  <rect width="800" height="480" rx="24" fill="#0F172A"/>
  <rect x="50" y="50" width="220" height="380" rx="18" fill="#1E293B"/>
  <rect x="295" y="50" width="455" height="380" rx="18" fill="#1E293B"/>
  <rect x="75" y="85" width="170" height="20" rx="8" fill="#38BDF8"/>
  <rect x="75" y="122" width="130" height="14" rx="7" fill="#334155"/>
  <rect x="75" y="152" width="145" height="14" rx="7" fill="#334155"/>
  <rect x="75" y="182" width="118" height="14" rx="7" fill="#334155"/>
  <rect x="325" y="90" width="180" height="36" rx="10" fill="#334155"/>
  <rect x="530" y="145" width="190" height="36" rx="10" fill="#38BDF8"/>
  <rect x="325" y="200" width="210" height="36" rx="10" fill="#334155"/>
  <rect x="510" y="255" width="210" height="36" rx="10" fill="#38BDF8"/>
  <rect x="325" y="370" width="395" height="38" rx="10" fill="#0B1220"/>
</svg>