<svg width="800" height="480" viewBox="0 0 800 480" fill="none" xmlns="http://www.w3.org/2000/svg">
  <rect width="800" height="480" rx="24" fill="#0F172A"/>
  <rect x="60" y="60" width="680" height="70" rx="14" fill="#1E293B"/>
  <rect x="78" y="83" width="190" height="24" rx="8" fill="#38BDF8"/>
  <rect x="60" y="160" width="210" height="250" rx="16" fill="#1E293B"/>
  <rect x="295" y="160" width="210" height="250" rx="16" fill="#1E293B"/>
  <rect x="530" y="160" width="210" height="250" rx="16" fill="#1E293B"/>
  <rect x="85" y="190" width="160" height="24" rx="8" fill="#818CF8"/>
  <rect x="320" y="190" width="160" height="24" rx="8" fill="#818CF8"/>
  <rect x="555" y="190" width="160" height="24" rx="8" fill="#818CF8"/>
  <rect x="85" y="230" width="120" height="16" rx="8" fill="#334155"/>
  <rect x="320" y="230" width="120" height="16" rx="8" fill="#334155"/>
  <rect x="555" y="230" width="120" height="16" rx="8" fill="#334155"/>
</svg>